<mxfile host="Electron" agent="Mozilla/5.0 (Windows NT 10.0; Win64; x64) AppleWebKit/537.36 (KHTML, like Gecko) draw.io/26.2.2 Chrome/134.0.6998.178 Electron/35.1.2 Safari/537.36" version="26.2.2">
  <diagram name="Trang-1" id="NSK-FaSNxNrm_pfX8hWE">
    <mxGraphModel dx="1044" dy="626" grid="1" gridSize="10" guides="1" tooltips="1" connect="1" arrows="1" fold="1" page="1" pageScale="1" pageWidth="1169" pageHeight="827" math="0" shadow="0">
      <root>
        <mxCell id="0" />
        <mxCell id="1" parent="0" />
        <mxCell id="iWj4GzMIcKyeY4hLla2P-6" style="edgeStyle=orthogonalEdgeStyle;rounded=0;orthogonalLoop=1;jettySize=auto;html=1;exitX=0.25;exitY=0;exitDx=0;exitDy=0;entryX=0.5;entryY=1;entryDx=0;entryDy=0;strokeWidth=3;endSize=17;endArrow=blockThin;endFill=1;" edge="1" parent="1" source="iWj4GzMIcKyeY4hLla2P-1" target="iWj4GzMIcKyeY4hLla2P-4">
          <mxGeometry relative="1" as="geometry" />
        </mxCell>
        <mxCell id="iWj4GzMIcKyeY4hLla2P-1" value="KhachHangDuLich" style="swimlane;whiteSpace=wrap;html=1;startSize=23;swimlaneFillColor=default;" vertex="1" parent="1">
          <mxGeometry x="400" y="500" width="400" height="210" as="geometry" />
        </mxCell>
        <mxCell id="iWj4GzMIcKyeY4hLla2P-2" value="&lt;h1 style=&quot;margin-top: 0px;&quot;&gt;&lt;div style=&quot;color: #3b3b3b;background-color: #ffffff;font-family: Consolas, &#39;Courier New&#39;, monospace;font-weight: normal;font-size: 14px;line-height: 19px;white-space: pre;&quot;&gt;&lt;div&gt;@&lt;span style=&quot;color: #267f99;&quot;&gt;Entity&lt;/span&gt;&lt;/div&gt;&lt;div&gt;@&lt;span style=&quot;color: #267f99;&quot;&gt;Table&lt;/span&gt;&lt;/div&gt;&lt;div&gt;@&lt;span style=&quot;color: #267f99;&quot;&gt;Data&lt;/span&gt;&lt;/div&gt;&lt;div&gt;@&lt;span style=&quot;color: #267f99;&quot;&gt;EqualsAndHashCode&lt;/span&gt;(&lt;span style=&quot;color: #795e26;&quot;&gt;callSuper&lt;/span&gt; &lt;span style=&quot;color: #000000;&quot;&gt;=&lt;/span&gt; &lt;span style=&quot;color: #0000ff;&quot;&gt;false&lt;/span&gt;)&lt;/div&gt;&lt;div&gt;&lt;span style=&quot;color: #0000ff;&quot;&gt;public&lt;/span&gt; &lt;span style=&quot;color: #0000ff;&quot;&gt;class&lt;/span&gt; &lt;span style=&quot;color: #267f99;&quot;&gt;KhachHangDuLich&lt;/span&gt; &lt;span style=&quot;color: #0000ff;&quot;&gt;extends&lt;/span&gt; &lt;span style=&quot;color: #267f99;&quot;&gt;KhachHang&lt;/span&gt; {&lt;/div&gt;&lt;div&gt;&amp;nbsp; &amp;nbsp; &lt;span style=&quot;color: #0000ff;&quot;&gt;private&lt;/span&gt; &lt;span style=&quot;color: #267f99;&quot;&gt;String&lt;/span&gt; &lt;span style=&quot;color: #001080;&quot;&gt;huongdanviendulich&lt;/span&gt;;&lt;/div&gt;}&lt;/div&gt;&lt;/h1&gt;" style="text;html=1;whiteSpace=wrap;overflow=hidden;rounded=0;" vertex="1" parent="iWj4GzMIcKyeY4hLla2P-1">
          <mxGeometry x="20" y="50" width="380" height="150" as="geometry" />
        </mxCell>
        <mxCell id="iWj4GzMIcKyeY4hLla2P-4" value="KhachHang" style="swimlane;whiteSpace=wrap;html=1;startSize=23;swimlaneFillColor=default;" vertex="1" parent="1">
          <mxGeometry x="190" y="50" width="450" height="320" as="geometry" />
        </mxCell>
        <mxCell id="iWj4GzMIcKyeY4hLla2P-5" value="&lt;h1 style=&quot;margin-top: 0px;&quot;&gt;&lt;div style=&quot;color: #3b3b3b;background-color: #ffffff;font-family: Consolas, &#39;Courier New&#39;, monospace;font-weight: normal;font-size: 14px;line-height: 19px;white-space: pre;&quot;&gt;&lt;div style=&quot;line-height: 19px;&quot;&gt;&lt;div&gt;@&lt;span style=&quot;color: #267f99;&quot;&gt;Entity&lt;/span&gt;&lt;/div&gt;&lt;div&gt;@&lt;span style=&quot;color: #267f99;&quot;&gt;Table&lt;/span&gt;&lt;/div&gt;&lt;div&gt;@&lt;span style=&quot;color: #267f99;&quot;&gt;Data&lt;/span&gt;&lt;/div&gt;&lt;div&gt;@&lt;span style=&quot;color: #267f99;&quot;&gt;Inheritance&lt;/span&gt;(&lt;span style=&quot;color: #795e26;&quot;&gt;strategy&lt;/span&gt;&lt;span style=&quot;color: #000000;&quot;&gt;=&lt;/span&gt; &lt;span style=&quot;color: #267f99;&quot;&gt;InheritanceType&lt;/span&gt;.&lt;span style=&quot;color: #0070c1;&quot;&gt;JOINED&lt;/span&gt;)&lt;/div&gt;&lt;div&gt;&lt;span style=&quot;color: #0000ff;&quot;&gt;public&lt;/span&gt; &lt;span style=&quot;color: #0000ff;&quot;&gt;class&lt;/span&gt; &lt;span style=&quot;color: #267f99;&quot;&gt;KhachHang&lt;/span&gt; {&lt;/div&gt;&lt;div&gt;&amp;nbsp; &amp;nbsp; @&lt;span style=&quot;color: #267f99;&quot;&gt;Id&lt;/span&gt;&lt;/div&gt;&lt;div&gt;&amp;nbsp; &amp;nbsp; @&lt;span style=&quot;color: #267f99;&quot;&gt;GeneratedValue&lt;/span&gt;(&lt;span style=&quot;color: #795e26;&quot;&gt;strategy&lt;/span&gt;&lt;span style=&quot;color: #000000;&quot;&gt;=&lt;/span&gt; &lt;span style=&quot;color: #267f99;&quot;&gt;GenerationType&lt;/span&gt;.&lt;span style=&quot;color: #0070c1;&quot;&gt;IDENTITY&lt;/span&gt;)&lt;/div&gt;&lt;div&gt;&amp;nbsp; &amp;nbsp; &lt;span style=&quot;color: #0000ff;&quot;&gt;private&lt;/span&gt; &lt;span style=&quot;color: #267f99;&quot;&gt;Long&lt;/span&gt; &lt;span style=&quot;color: #001080;&quot;&gt;maKH&lt;/span&gt;;&lt;/div&gt;&lt;br&gt;&lt;div&gt;&amp;nbsp; &amp;nbsp; &lt;span style=&quot;color: #0000ff;&quot;&gt;private&lt;/span&gt; &lt;span style=&quot;color: #267f99;&quot;&gt;String&lt;/span&gt; &lt;span style=&quot;color: #001080;&quot;&gt;tenKH&lt;/span&gt;;&lt;/div&gt;&lt;br&gt;&lt;div&gt;&amp;nbsp; &amp;nbsp; &lt;span style=&quot;color: #0000ff;&quot;&gt;private&lt;/span&gt; &lt;span style=&quot;color: #267f99;&quot;&gt;Timestamp&lt;/span&gt; &lt;span style=&quot;color: #001080;&quot;&gt;ngaydathangdautien&lt;/span&gt;;&lt;/div&gt;&lt;div&gt;}&lt;/div&gt;&lt;/div&gt;&lt;/div&gt;&lt;/h1&gt;" style="text;html=1;whiteSpace=wrap;overflow=hidden;rounded=0;" vertex="1" parent="iWj4GzMIcKyeY4hLla2P-4">
          <mxGeometry x="10" y="40" width="430" height="270" as="geometry" />
        </mxCell>
      </root>
    </mxGraphModel>
  </diagram>
</mxfile>
